<svg width="14" height="15" viewBox="0 0 14 15" fill="none" xmlns="http://www.w3.org/2000/svg">
<path d="M11.253 10.3422C10.957 10.3434 10.6644 10.408 10.3925 10.5321C10.1207 10.6561 9.87537 10.8371 9.67117 11.0642L4.31508 8.22296C4.44684 7.79946 4.44684 7.3423 4.31508 6.91879L9.67996 4.02632C10.0642 4.4556 10.5853 4.71807 11.142 4.76274C11.6987 4.80741 12.2511 4.63107 12.692 4.26801C13.1328 3.90495 13.4306 3.3811 13.5274 2.79827C13.6242 2.21545 13.5131 1.61529 13.2157 1.11445C12.9183 0.613611 12.4559 0.24787 11.9183 0.0883152C11.3808 -0.0712398 10.8064 -0.0132097 10.307 0.251126C9.80748 0.515462 9.41857 0.96722 9.2158 1.51859C9.01304 2.06996 9.0109 2.68156 9.20982 3.23451L3.89767 6.09903C3.61077 5.72708 3.22238 5.4583 2.78572 5.32953C2.34907 5.20076 1.88554 5.21831 1.45866 5.37976C1.03179 5.54121 0.662463 5.83867 0.401321 6.23136C0.140179 6.62405 0 7.09275 0 7.57321C0 8.05366 0.140179 8.52236 0.401321 8.91505C0.662463 9.30774 1.03179 9.6052 1.45866 9.76665C1.88554 9.92811 2.34907 9.94565 2.78572 9.81688C3.22238 9.68811 3.61077 9.41933 3.89767 9.04739L9.19664 11.8746C9.1071 12.1295 9.06098 12.3992 9.06043 12.6711C9.06043 13.1317 9.18928 13.582 9.43068 13.965C9.67208 14.348 10.0152 14.6465 10.4166 14.8227C10.8181 14.999 11.2598 15.0451 11.6859 14.9552C12.1121 14.8654 12.5036 14.6436 12.8108 14.3179C13.118 13.9922 13.3273 13.5772 13.4121 13.1255C13.4968 12.6737 13.4533 12.2054 13.287 11.7799C13.1208 11.3543 12.8392 10.9906 12.4779 10.7347C12.1166 10.4788 11.6919 10.3422 11.2573 10.3422H11.253Z" fill="#8C8FA6"/>
</svg>
