<svg width="14" height="14" viewBox="0 0 14 14" fill="none" xmlns="http://www.w3.org/2000/svg">
<path d="M7.41848 0.26381C7.33986 0.102271 7.17763 0 7 0C6.82237 0 6.66014 0.102271 6.58152 0.26381L4.6711 4.18944L0.399615 4.81849C0.223819 4.84438 0.0777621 4.96924 0.0228605 5.14057C-0.0320411 5.3119 0.013735 5.49998 0.14094 5.62572L3.23191 8.68123L2.50203 12.9961C2.472 13.1737 2.54397 13.3531 2.68768 13.459C2.83139 13.5649 3.02192 13.5789 3.17915 13.495L7 11.4578L10.8209 13.495C10.9781 13.5789 11.1686 13.5649 11.3123 13.459C11.456 13.3531 11.528 13.1737 11.498 12.9961L10.7681 8.68123L13.8591 5.62572C13.9863 5.49998 14.032 5.3119 13.9771 5.14057C13.9222 4.96924 13.7762 4.84438 13.6004 4.81849L9.3289 4.18944L7.41848 0.26381Z" fill="#F9CC4A"/>
</svg>
