<svg width="39" height="39" viewBox="0 0 39 39" fill="none" xmlns="http://www.w3.org/2000/svg">
<path d="M11.375 35.75C10.4812 35.75 9.71587 35.432 9.07887 34.7961C8.44187 34.1602 8.12392 33.3948 8.125 32.5C8.125 31.6063 8.4435 30.8414 9.0805 30.2055C9.7175 29.5696 10.4823 29.2511 11.375 29.25C12.2688 29.25 13.0341 29.5685 13.6711 30.2055C14.3081 30.8425 14.6261 31.6073 14.625 32.5C14.625 33.3938 14.3065 34.1591 13.6695 34.7961C13.0325 35.4331 12.2677 35.7511 11.375 35.75ZM27.625 35.75C26.7313 35.75 25.9659 35.432 25.3289 34.7961C24.6919 34.1602 24.3739 33.3948 24.375 32.5C24.375 31.6063 24.6935 30.8414 25.3305 30.2055C25.9675 29.5696 26.7323 29.2511 27.625 29.25C28.5187 29.25 29.2841 29.5685 29.9211 30.2055C30.5581 30.8425 30.8761 31.6073 30.875 32.5C30.875 33.3938 30.5565 34.1591 29.9195 34.7961C29.2825 35.4331 28.5177 35.7511 27.625 35.75ZM11.375 27.625C10.1562 27.625 9.23542 27.0904 8.6125 26.0211C7.98958 24.9519 7.9625 23.8886 8.53125 22.8313L10.725 18.85L4.875 6.50001H3.20938C2.74896 6.50001 2.36979 6.34401 2.07187 6.03201C1.77396 5.72001 1.625 5.33434 1.625 4.87501C1.625 4.41459 1.781 4.02838 2.093 3.71638C2.405 3.40438 2.79067 3.24892 3.25 3.25001H5.89062C6.18854 3.25001 6.47292 3.33126 6.74375 3.49376C7.01458 3.65626 7.21771 3.88646 7.35313 4.18438L8.45 6.50001H32.4188C33.15 6.50001 33.651 6.77084 33.9219 7.31251C34.1927 7.85417 34.1792 8.42292 33.8813 9.01876L28.1125 19.4188C27.8146 19.9604 27.4219 20.3802 26.9344 20.6781C26.4469 20.976 25.8917 21.125 25.2688 21.125H13.1625L11.375 24.375H29.2906C29.751 24.375 30.1302 24.531 30.4281 24.843C30.726 25.155 30.875 25.5407 30.875 26C30.875 26.4604 30.719 26.8466 30.407 27.1586C30.095 27.4706 29.7093 27.6261 29.25 27.625H11.375Z" fill="#15070A"/>
</svg>
