<svg width="18" height="18" viewBox="0 0 18 18" fill="none" xmlns="http://www.w3.org/2000/svg">
<path d="M0.597676 0.172917L1.30876 2.63076M1.30876 2.63076L4.15308 12.4621H17.1896V5.0886C17.1896 3.73117 16.1284 2.63076 14.8193 2.63076H1.30876ZM14.8193 17.3778C14.1648 17.3778 13.6342 16.8276 13.6342 16.1489C13.6342 15.4702 14.1648 14.92 14.8193 14.92C15.4738 14.92 16.0044 15.4702 16.0044 16.1489C16.0044 16.8276 15.4738 17.3778 14.8193 17.3778ZM5.33822 16.1489C5.33822 15.4702 5.86882 14.92 6.52335 14.92C7.17788 14.92 7.70849 15.4702 7.70849 16.1489C7.70849 16.8276 7.17788 17.3778 6.52335 17.3778C5.86882 17.3778 5.33822 16.8276 5.33822 16.1489Z" stroke="white" stroke-width="1.2"/>
</svg>
