<svg width="39" height="39" viewBox="0 0 39 39" fill="none" xmlns="http://www.w3.org/2000/svg">
<path d="M32.5 3.25H6.5C4.7125 3.25 3.26625 4.7125 3.26625 6.5L3.25 35.75L9.75 29.25H32.5C34.2875 29.25 35.75 27.7875 35.75 26V6.5C35.75 4.7125 34.2875 3.25 32.5 3.25ZM27.625 22.75H11.375C10.4812 22.75 9.75 22.0187 9.75 21.125C9.75 20.2313 10.4812 19.5 11.375 19.5H27.625C28.5187 19.5 29.25 20.2313 29.25 21.125C29.25 22.0187 28.5187 22.75 27.625 22.75ZM27.625 17.875H11.375C10.4812 17.875 9.75 17.1438 9.75 16.25C9.75 15.3562 10.4812 14.625 11.375 14.625H27.625C28.5187 14.625 29.25 15.3562 29.25 16.25C29.25 17.1438 28.5187 17.875 27.625 17.875ZM27.625 13H11.375C10.4812 13 9.75 12.2688 9.75 11.375C9.75 10.4812 10.4812 9.75 11.375 9.75H27.625C28.5187 9.75 29.25 10.4812 29.25 11.375C29.25 12.2688 28.5187 13 27.625 13Z" fill="#15070A"/>
</svg>
