<svg width="39" height="39" viewBox="0 0 39 39" fill="none" xmlns="http://www.w3.org/2000/svg">
<path d="M19.5 3.25C10.5251 3.25 3.25 10.5251 3.25 19.5C3.25 28.4749 10.5251 35.75 19.5 35.75C28.4749 35.75 35.75 28.4749 35.75 19.5C35.75 10.5251 28.4749 3.25 19.5 3.25Z" stroke="#15070A" stroke-width="1.5" stroke-linecap="round" stroke-linejoin="round"/>
<path d="M6.94037 29.8123C6.94037 29.8123 10.5625 25.1875 19.5 25.1875C28.4375 25.1875 32.0612 29.8123 32.0612 29.8123M19.5 19.5C20.7929 19.5 22.0329 18.9864 22.9471 18.0721C23.8614 17.1579 24.375 15.9179 24.375 14.625C24.375 13.3321 23.8614 12.0921 22.9471 11.1779C22.0329 10.2636 20.7929 9.75 19.5 9.75C18.2071 9.75 16.9671 10.2636 16.0528 11.1779C15.1386 12.0921 14.625 13.3321 14.625 14.625C14.625 15.9179 15.1386 17.1579 16.0528 18.0721C16.9671 18.9864 18.2071 19.5 19.5 19.5Z" stroke="#15070A" stroke-width="1.5" stroke-linecap="round" stroke-linejoin="round"/>
</svg>
