<svg width="15" height="11" viewBox="0 0 15 11" fill="none" xmlns="http://www.w3.org/2000/svg">
<path d="M4.7622 10.313L5.18338 10.7497L6.05685 9.9074L5.63567 9.47066L4.7622 10.313ZM0.84291 5.37487L0.406176 4.9537L8.25746e-06 5.37487L0.406176 5.79605L0.84291 5.37487ZM5.63567 1.27908L6.05685 0.842348L5.18338 6.02735e-08L4.7622 0.436734L5.63567 1.27908ZM5.63567 9.47066L1.27964 4.9537L0.406176 5.79605L4.7622 10.313L5.63567 9.47066ZM1.27964 5.79605L5.63567 1.27908L4.7622 0.436734L0.406176 4.9537L1.27964 5.79605ZM0.84291 5.98161H15V4.76814H0.84291V5.98161Z" fill="#8C8FA6"/>
</svg>
