<svg width="12" height="12" viewBox="0 0 12 12" fill="none" xmlns="http://www.w3.org/2000/svg">
<path d="M6.3587 0.218066C6.29131 0.0845372 6.15226 0 6 0C5.84774 0 5.70869 0.0845372 5.64131 0.218066L4.0038 3.46301L0.342527 3.98298C0.191845 4.00438 0.0666532 4.10759 0.0195947 4.24921C-0.0274638 4.39083 0.0117729 4.5463 0.120806 4.65024L2.77021 7.17593L2.1446 10.7426C2.11886 10.8894 2.18055 11.0377 2.30373 11.1253C2.42691 11.2128 2.59022 11.2243 2.72499 11.155L6 9.47107L9.27501 11.155C9.40978 11.2243 9.57309 11.2128 9.69627 11.1253C9.81946 11.0377 9.88114 10.8894 9.8554 10.7426L9.22979 7.17593L11.8792 4.65024C11.9882 4.5463 12.0275 4.39083 11.9804 4.24921C11.9333 4.10759 11.8082 4.00438 11.6575 3.98298L7.9962 3.46301L6.3587 0.218066Z" fill="#E2E3E9"/>
</svg>
